<?xml version="1.0" encoding="utf-8"?>
<!-- Generator: Adobe Illustrator 18.1.1, SVG Export Plug-In . SVG Version: 6.00 Build 0)  -->
<svg version="1.1" id="Calque_2" xmlns="http://www.w3.org/2000/svg" xmlns:xlink="http://www.w3.org/1999/xlink" x="0px" y="0px"
	 viewBox="0 0 1000 1000" style="enable-background:new 0 0 1000 1000;" xml:space="preserve">
<style type="text/css">
	.st0{fill:#FFFFFF;}
	.st1{fill:none;}
</style>
<g>
	<circle class="st0" cx="438.9" cy="344.5" r="67"/>
	<path class="st0" d="M329.6,501.6c-3.4,2-8.8,0.8-12.2-2.6l-33.1-33.1c-3.4-3.4-4.6-8.8-2.5-12.2l19.8-31.4
		c-6.1-10.9-11.1-22.6-14.5-34.9l-36.6-9.1c-3.8-0.9-6.8-5.6-6.8-10.5V321c0-4.9,3-9.5,6.8-10.4l36.4-8.2c3.4-12.3,8.2-24.1,14.3-35
		l-19.4-32.2c-2-3.4-0.8-8.8,2.6-12.2l33.1-33.1c3.4-3.4,8.8-4.6,12.2-2.5l31,19.6c11.1-6.4,23-11.5,35.6-15.1l8.9-35.7
		c0.9-3.8,5.6-6.8,10.5-6.8h44.6c-29-20.5-70-33.7-127.2-33.7c-100.1,0-181.2,81.1-181.2,181.2c0,19.9,9.2,42.6,9.2,42.6
		c-10.6,57.5-69.4,103.2-9.2,108c0,18.9-15.3,28.9,5.9,36.6c-13,12.7-3.9,22.2,11.8,30.7c-18.4,74.4,57.8,59,57.8,59
		c50-6.6,164.9,110.7,164.9,110.7V497.4c-12.6-3.5-19.7-8.6-30.8-15L329.6,501.6z"/>
	<path class="st0" d="M405.9,499.3v185h65.6V499.4c-10.5,2.2-21.4,3.4-32.6,3.4C427.6,502.8,416.5,501.6,405.9,499.3z"/>
	<path class="st0" d="M607.6,546.5h-56.8v-90.1c-18.1,18.1-40.5,31.8-65.6,39.5v188.5h65.6v-72.3h56.8v72.3h65.6V325.5h-65.6V546.5z
		"/>
	<polygon class="st0" points="875,325.5 809.4,325.5 809.4,325.5 781,368.5 752.6,325.5 752.6,325.5 752.6,325.5 687,325.5 
		687,325.5 687,684.3 752.6,684.3 752.6,421 753.8,422.7 781,462.3 808.2,422.7 809.4,421 809.4,421 809.4,684.3 875,684.3 
		875,325.5 	"/>
	<polygon class="st0" points="522.6,195.3 523,195.8 531.4,208 539.7,195.8 540.1,195.3 540.1,195.3 540.1,276.3 560.3,276.3 
		560.3,165.9 560.3,165.9 540.1,165.9 540.1,165.9 531.4,179.2 522.6,165.9 522.6,165.9 522.6,165.9 502.4,165.9 502.4,165.9 
		502.4,276.3 522.6,276.3 	"/>
	<path class="st0" d="M589.5,266.2h18.1l2,10.1h20.2l-20.2-110.4H609h-20.8h-0.6l-20.2,110.4h20.2L589.5,266.2z M603.8,246.1h-10.3
		l5.1-26.5L603.8,246.1z"/>
	<path class="st0" d="M691.6,232.7c-2.2-5.4-5.9-9.6-8.5-12.4c-4-4.2-8.5-8.1-13.5-11.6c-1.2-0.8-2.4-1.6-3.6-2.4
		c-3.4-2.2-6.6-4.4-8.4-6.6c-2.3-2.8-2.1-6.7,0.4-9.5c3.6-3.9,14.4-3.9,19-3.9v-20.2c-12.6,0-25.4,1.3-33.8,10.4
		c-9.3,10.1-9.8,25.1-1.3,35.7c3.8,4.7,8.7,7.9,13,10.8c1.1,0.7,2.2,1.4,3.2,2.1c3.8,2.7,7.3,5.6,10.3,8.9c2.4,2.5,3.9,4.5,4.6,6.3
		c1.6,3.9-0.5,8.9-5,11.7c-1.8,1.1-4,2.1-6.6,2.8c-3.9,1.1-8.4,1-13.6,0.8c-1.9-0.1-3.8-0.1-5.9-0.1v20.2c1.8,0,3.6,0,5.3,0.1
		c1.8,0,3.6,0.1,5.4,0.1c4.6,0,9.3-0.3,14.2-1.7c4.5-1.3,8.5-3,11.9-5.1C691.6,261.1,697.1,245.7,691.6,232.7z"/>
	<polygon class="st0" points="707.5,276.3 727.7,276.3 727.7,186.1 746.6,186.1 746.6,165.9 727.7,165.9 707.5,165.9 688.7,165.9 
		688.7,186.1 707.5,186.1 	"/>
	<polygon class="st0" points="808.6,276.3 808.6,256.1 771,256.1 771,244 790.5,244 790.5,223.8 771,223.8 771,186.1 808.6,186.1 
		808.6,165.9 771,165.9 750.8,165.9 750.8,186.1 750.8,223.8 750.8,244 750.8,256.1 750.8,276.3 771,276.3 	"/>
	<path class="st0" d="M812.4,232.5v15.2v0v28.6h20.2v-19l15.4,19h23.5l-21.8-26.8c12.9-7.2,21.8-22.2,21.8-39.6
		c0-24.3-17.4-44.1-38.9-44.1h-20.2v6.4v0V210c0,0,0,0,0,0v0c0,0,0,0,0,0v22.1h-0.3L812.4,232.5z M852.1,210
		c0,12.1-8.7,21.9-19.5,22.1v-44.2C843.4,188.1,852.1,197.9,852.1,210z"/>
</g>
<rect class="st1" width="1000" height="1000"/>
</svg>
